<svg width="25" height="25" viewBox="0 0 25 25" fill="none" xmlns="http://www.w3.org/2000/svg">
<path d="M23.6979 4.43769C23.4162 4.10552 23.0636 3.83836 22.665 3.65519C22.2665 3.47203 21.8318 3.37735 21.3918 3.37788H5.20205L5.15999 3.03248C5.07392 2.31454 4.72279 1.65259 4.17316 1.17212C3.62352 0.691662 2.9136 0.426087 2.17799 0.425751L1.95569 0.425751C1.69012 0.425751 1.43542 0.529426 1.24763 0.71397C1.05984 0.898514 0.954346 1.14881 0.954346 1.40979C0.954346 1.67078 1.05984 1.92107 1.24763 2.10562C1.43542 2.29016 1.69012 2.39383 1.95569 2.39383H2.17799C2.42325 2.39387 2.65997 2.48236 2.84325 2.64252C3.02653 2.80268 3.14363 3.02337 3.17232 3.26274L4.55017 14.776C4.69322 15.9734 5.27863 17.0775 6.19529 17.8787C7.11195 18.68 8.29605 19.1226 9.52285 19.1225H19.9799C20.2455 19.1225 20.5001 19.0189 20.6879 18.8343C20.8757 18.6498 20.9812 18.3995 20.9812 18.1385C20.9812 17.8775 20.8757 17.6272 20.6879 17.4427C20.5001 17.2581 20.2455 17.1545 19.9799 17.1545H9.52285C8.90307 17.1528 8.299 16.9627 7.79346 16.6103C7.28792 16.258 6.90565 15.7606 6.69906 15.1864H18.6351C19.8089 15.1865 20.9455 14.7812 21.8462 14.0414C22.7469 13.3016 23.3544 12.2743 23.5627 11.139L24.3487 6.8545C24.4272 6.4294 24.4096 5.99254 24.2971 5.57489C24.1846 5.15723 23.98 4.76899 23.6979 4.43769Z" fill="white"/>
<path d="M7.96369 24.0428C9.06974 24.0428 9.96637 23.1616 9.96637 22.0747C9.96637 20.9877 9.06974 20.1066 7.96369 20.1066C6.85763 20.1066 5.961 20.9877 5.961 22.0747C5.961 23.1616 6.85763 24.0428 7.96369 24.0428Z" fill="white"/>
<path d="M17.9772 24.0428C19.0832 24.0428 19.9799 23.1616 19.9799 22.0747C19.9799 20.9877 19.0832 20.1066 17.9772 20.1066C16.8711 20.1066 15.9745 20.9877 15.9745 22.0747C15.9745 23.1616 16.8711 24.0428 17.9772 24.0428Z" fill="white"/>
</svg>
