<svg width="104" height="44" viewBox="0 0 104 44" fill="none" xmlns="http://www.w3.org/2000/svg">
<path d="M23.9264 41.629C23.6519 40.9988 23.3088 40.2334 22.9199 39.3331C22.5997 38.5903 22.3023 37.825 22.0736 37.0372C21.7534 36.0918 21.456 35.0339 21.1586 33.8634C20.8841 32.7154 20.6097 31.4775 20.358 30.1719C19.9234 27.741 19.5574 25.1749 19.3058 22.4514C19.0313 19.7503 18.8712 17.1617 18.8255 14.6858C18.8255 14.0105 18.8026 13.2902 18.7797 12.5249C18.7568 11.7821 18.7111 11.2194 18.6882 10.8817C18.5967 10.4541 18.5281 10.0039 18.5052 9.57622C18.4595 9.86884 18.368 10.184 18.2765 10.4541C18.2079 10.6792 17.9791 11.5795 17.5674 13.1777C17.1556 14.7308 16.6753 16.509 16.1263 18.4448C15.7146 20.0429 15.3486 21.4159 15.0283 22.5639C14.7081 23.7119 14.4336 24.7023 14.2278 25.5126C13.7931 27.0207 13.4729 28.0561 13.2899 28.6413C13.1298 29.114 12.901 29.5642 12.6266 29.9919C12.0547 30.8697 11.3913 31.2524 10.6365 31.1623C9.88165 31.0273 9.2183 30.442 8.64644 29.3391C8.21183 28.5513 7.73147 27.3808 7.22824 25.7827C6.74788 24.2296 6.15316 22.0687 5.42119 19.3226C4.84933 17.1167 4.46047 15.7212 4.27748 15.1584C4.09448 14.5957 3.98011 14.5957 4.00298 15.1584C4.00298 16.1488 3.93436 17.6119 3.81999 19.5477C3.70562 21.506 3.54549 23.5993 3.33963 25.8052C3.24813 26.9532 3.13376 28.1236 2.99651 29.3166C2.90502 30.4645 2.79065 31.59 2.6534 32.6929C2.42466 34.6962 2.21879 36.4069 2.03579 37.8475C1.8528 39.3106 1.69269 40.1884 1.55544 40.4585C1.44107 40.7511 1.16659 40.9537 0.846348 40.9762C0.457487 40.9762 0.205859 40.8412 0.0914884 40.5936C0.04574 40.3685 0.022877 40.1659 0.0457512 39.9408C0.022877 39.6032 0 39.2656 0 38.9054V38.4327C0.0228742 37.2848 0.0686142 35.8217 0.0914884 34.0435C0.114363 32.2428 0.160119 30.397 0.228742 28.4838C0.297365 26.548 0.365987 24.7023 0.457484 22.9691C0.526107 21.1909 0.594729 19.8178 0.686226 18.8499C0.846345 16.554 1.05222 14.5057 1.30383 12.7275C1.55545 10.9493 1.82993 9.46368 2.15017 8.29321C2.31029 7.66296 2.42466 7.07773 2.53903 6.515C2.60765 6.15486 2.65341 5.77221 2.67628 5.38955C2.67628 5.20948 2.69915 5.02941 2.76777 4.87185C2.81352 4.78181 2.90502 4.73679 2.99651 4.73679C3.24813 4.73679 3.52262 4.89436 3.79711 5.20948C4.04873 5.45708 4.20885 5.79471 4.23173 6.15486C4.2546 6.49249 4.32322 6.80762 4.41472 7.14525C4.57484 7.64045 4.73495 8.15816 4.94082 8.69837C5.16956 9.2611 5.51267 10.319 6.03878 11.8721C6.51914 13.4253 6.9995 15.0459 7.50273 16.7341C8.48632 20.1329 9.2183 22.5414 9.67578 23.982C10.1561 25.445 10.4535 26.2554 10.5908 26.4129C10.6136 26.4354 10.7051 26.3229 10.8195 26.0753C10.9796 25.7602 11.094 25.4225 11.2084 25.0849C12.1919 21.7761 12.9925 19.12 13.633 17.0942C14.2964 15.0459 14.9368 13.2227 15.5316 11.6696C15.8518 10.8592 16.1721 10.0489 16.4923 9.23859C16.8354 8.45077 17.2014 7.64045 17.5902 6.80762C18.0249 5.95228 18.4137 5.09694 18.734 4.19658C18.8712 3.54382 18.9398 2.89106 18.917 2.2383C18.917 1.83313 18.9398 1.22539 18.9627 0.41507L19.6261 0.550123C20.1064 0.640159 20.4266 0.775213 20.5639 0.977794C20.7011 1.18037 20.907 1.81063 20.9985 2.80102C21.0214 3.22869 21.0671 3.7464 21.09 4.33163C21.1129 4.91686 21.1586 5.68217 21.2273 6.53751C21.456 10.5891 21.6847 14.1681 21.9363 17.2968C22.188 20.403 22.5082 23.5318 22.8971 26.638C23.1258 28.2812 23.3546 30.0144 23.6062 31.7926C23.8578 33.5483 24.1551 35.4165 24.4983 37.3973C24.8414 39.4906 25.093 41.0213 25.2074 42.0342C25.276 42.6644 25.2989 43.0921 25.2989 43.3397C25.3217 43.4297 25.2989 43.5423 25.2531 43.6098L25.2074 43.6548C25.1159 43.6548 24.9786 43.5198 24.8185 43.2722C24.4983 42.777 24.2009 42.2142 23.9264 41.629Z" fill="#37D150"/>
<path d="M39.1149 20.7407C39.5266 20.9883 39.7783 21.3934 39.7783 21.8661V22.0912C39.7783 22.6765 39.6868 23.8469 39.5038 25.6026C39.4123 26.2554 39.3208 27.1782 39.2293 28.3712C39.092 29.5192 38.9777 30.7347 38.8404 32.0177C38.6574 33.976 38.4973 35.8217 38.3601 37.5324C38.1999 39.2881 38.1313 40.2785 38.1313 40.5711C38.1313 40.7061 38.1084 40.8187 38.0856 40.9537C38.0398 41.0888 37.9712 41.2013 37.9026 41.3364C37.7653 41.4939 37.6967 41.5615 37.6738 41.5615C37.651 41.5615 37.6052 41.4714 37.5366 41.2914C37.468 41.0663 37.4222 40.8187 37.3993 40.5936C37.3079 40.1884 37.2164 39.7608 37.1249 39.2881C36.9876 38.5453 36.919 37.8025 36.8961 37.0372C36.8732 36.2043 36.8504 34.8763 36.8504 33.1206V28.6863L35.5694 31.2073C34.2198 33.7959 32.9846 35.5516 31.8638 36.497C30.7201 37.4423 29.645 37.5774 28.6385 36.9696C28.2039 36.722 27.8608 36.3619 27.7007 35.8892C27.5177 35.4165 27.4033 34.6962 27.3576 33.7284C27.3347 33.6158 27.3118 33.4808 27.3118 33.3457C27.3118 32.4228 27.4262 31.5 27.6549 30.5996C27.9294 29.3841 28.3183 28.2137 28.8215 27.0882C29.7136 25.0624 30.6515 23.5993 31.635 22.699C32.6186 21.7536 33.5565 21.4835 34.4943 21.8661C34.8603 22.0462 35.1806 22.3163 35.3864 22.6539C35.638 22.9466 35.7981 23.3292 35.821 23.7344C35.821 24.072 35.9125 24.162 36.0955 23.9595C36.4386 23.4868 36.736 22.9916 37.0105 22.4739C37.2392 21.9562 37.5366 21.4835 37.8568 21.0333C38.0627 20.7857 38.3601 20.6506 38.6574 20.6056C38.7489 20.6056 38.8404 20.6281 38.9319 20.6506C38.9777 20.6281 39.0463 20.6732 39.1149 20.7407ZM32.8474 24.5222C32.5043 24.9274 32.2069 25.3775 31.9324 25.8277C31.635 26.4129 31.3606 26.9982 31.1318 27.6059C30.6286 28.7989 30.2169 30.0144 29.8966 31.2524C29.7365 31.9501 29.6221 32.6479 29.6221 33.3682C29.6221 33.5933 29.645 33.8409 29.6679 34.066C29.7594 34.3811 29.8966 34.5387 30.0567 34.5387C30.1025 34.5387 30.1482 34.5162 30.194 34.4937C30.4227 34.4036 30.7887 33.9985 31.3377 33.2782C31.6808 32.828 32.001 32.3553 32.2984 31.8826C32.6873 31.2524 33.0075 30.6671 33.3049 30.1044C33.5565 29.6767 33.8996 29.024 34.3571 28.1911V26.503C34.38 25.8502 34.3342 25.1975 34.2198 24.5447C34.1283 24.1395 33.9911 23.937 33.7852 23.937C33.648 23.937 33.5107 23.982 33.3964 24.072C33.1905 24.2071 33.0075 24.3646 32.8474 24.5222Z" fill="#37D150"/>
<path d="M44.3073 41.0663C43.644 40.1659 43.095 38.9279 42.6375 37.3748C42.1114 35.5516 41.7912 33.6833 41.631 31.8151C41.6082 31.2524 41.5624 30.5096 41.5395 29.5642C41.5167 28.6188 41.4938 27.6509 41.4938 26.5255V26.4805C41.4938 24.4322 41.5395 22.2713 41.631 20.0204C41.6997 17.747 41.7912 15.9688 41.9055 14.6858C42.1343 12.6825 42.363 10.8592 42.6146 9.21609C42.8662 7.57293 43.1179 6.15486 43.3695 4.96189C43.7126 3.56633 43.9871 2.86855 44.1701 2.86855H44.2158C44.3988 2.93608 44.5589 3.7464 44.6504 5.29952C44.6733 5.88476 44.6962 6.53751 44.6962 7.2578C44.6733 8.0006 44.6276 9.19357 44.5589 10.8142C44.5361 11.6921 44.4903 12.705 44.4217 13.8979C44.3531 15.1134 44.2844 16.5315 44.193 18.1521C44.0328 21.1458 43.9413 23.6443 43.9185 25.6251C43.8498 27.6284 43.8727 28.6188 43.9642 28.6188C44.0328 28.6188 44.1472 28.4388 44.3531 28.0561C44.6047 27.6059 44.8334 27.1332 45.0164 26.6605C46.0915 24.2296 47.464 21.9337 49.1338 19.8403C50.7578 17.792 52.3133 16.3739 53.8459 15.5861C54.2118 15.3835 54.6007 15.2035 54.9896 15.0684C55.3098 15.0009 55.4699 15.0234 55.4699 15.1134C55.3556 15.316 55.2412 15.4961 55.0811 15.6762C54.8294 16.0138 54.5092 16.3964 54.1203 16.8466C52.725 18.6473 51.4212 20.5156 50.2317 22.4514C48.8364 24.6122 47.5554 26.7731 46.4117 28.9565C46.1601 29.4517 45.7713 30.1945 45.268 31.1623C45.4281 31.3424 45.6569 31.59 45.9771 31.9051C46.1601 32.1302 46.4117 32.4003 46.732 32.738C47.0065 33.1206 47.281 33.4583 47.5326 33.8184C48.0587 34.5387 48.6534 35.2365 49.2939 35.8667C49.7285 36.3169 50.2317 36.7221 50.7578 37.0372C51.0323 37.1722 51.3526 37.2623 51.6499 37.3073C52.0617 37.3973 52.4734 37.4649 52.8851 37.4874C53.2969 37.5099 53.6171 37.5549 53.8916 37.5774C54.1661 37.5999 54.3262 37.6899 54.3262 37.7125C54.3262 37.78 54.2118 37.87 53.9831 37.9826C53.7544 38.0951 53.4799 38.2527 53.1825 38.4102C51.6957 39.1305 50.2775 39.1305 48.905 38.4552C47.5326 37.8025 46.366 36.497 45.3824 34.5837C45.2223 34.201 45.0393 33.8409 44.8105 33.5033C44.6504 33.1881 44.5361 33.0306 44.4674 33.0306C44.2158 33.0306 44.1243 33.6608 44.193 34.9438C44.2387 36.3844 44.4217 37.8025 44.7191 39.198C44.8106 39.7608 44.902 40.2335 44.9935 40.6386C45.0164 40.8862 45.0622 41.1113 45.1308 41.3364C45.1537 41.494 45.1079 41.5615 44.9935 41.5615C44.9478 41.5615 44.9249 41.539 44.902 41.5165C44.6962 41.4715 44.4674 41.2914 44.3073 41.0663Z" fill="#37D150"/>
<path d="M58.4664 11.1068C57.8031 10.9268 57.1626 10.6116 56.6136 10.184C56.2705 9.91386 56.0875 9.66626 56.0875 9.48619C56.0875 9.41866 56.1333 9.35113 56.179 9.30612C56.2476 9.23859 56.6594 9.19357 57.4142 9.12604C58.2148 9.05852 59.1069 8.99099 60.1134 8.94597C61.3486 8.87844 62.4008 8.81092 63.2472 8.72088C63.8648 8.65335 64.4824 8.56332 65.1 8.45077C65.6032 8.31572 66.1064 8.22569 66.6097 8.18067C66.6783 8.18067 66.7469 8.18067 66.7926 8.22568C66.7926 8.38325 66.4038 8.72088 65.6032 9.2611C64.3909 10.0489 63.0642 10.6567 61.6688 11.0843C61.0512 11.2644 60.4108 11.3544 59.7703 11.3544C59.3357 11.2869 58.8782 11.2419 58.4664 11.1068ZM59.0154 40.7962C58.6266 40.3685 58.3978 39.8283 58.3063 39.2431C58.1462 38.1851 58.0776 37.1047 58.0776 36.0243C58.0547 35.6416 58.0318 35.259 58.0318 34.8538C58.0318 33.9534 58.0547 32.963 58.1233 31.9051C58.192 30.352 58.3063 28.7314 58.4664 27.0882C58.5579 26.0303 58.6723 24.9724 58.8096 23.9595C58.9239 22.924 59.0383 21.9562 59.1984 21.0558C59.3814 19.5927 59.633 18.1521 59.9533 16.7116C60.2049 15.5636 60.4565 14.9334 60.7081 14.8433C60.7767 14.8208 60.8225 14.7983 60.8911 14.7983C61.3257 14.7983 61.5773 15.5861 61.646 17.1392V17.837C61.646 19.6828 61.463 22.6314 61.0741 26.7281C60.7539 29.8118 60.548 32.5804 60.4107 35.0114C60.2506 37.4423 60.2049 39.0855 60.2735 39.9183C60.2735 40.1209 60.2964 40.3235 60.3193 40.5261V40.9537C60.3193 41.1788 60.182 41.2914 59.8846 41.2914H59.8389C59.5187 41.2238 59.2213 41.0438 59.0154 40.7962Z" fill="#37D150"/>
<path d="M72.7629 33.1656C72.5341 32.2653 72.4198 31.3424 72.374 30.4195C72.3283 29.0915 72.3511 27.7635 72.4198 26.4354C72.4884 24.6572 72.5113 23.3517 72.4426 22.5189C72.3969 21.7086 72.2597 21.3034 72.0538 21.3259C71.9165 21.3259 71.7107 21.4835 71.4133 21.8211C71.0931 22.1587 70.7957 22.5189 70.5441 22.924C70.1095 23.5993 69.7435 24.2746 69.4004 24.9949C68.9886 25.8277 68.5312 26.8856 68.0279 28.1911C67.7992 28.7764 67.5476 29.3166 67.3417 29.8343C67.1358 30.352 66.9528 30.6671 66.8842 30.8022C66.564 31.3424 66.198 31.59 65.7634 31.5225C65.3288 31.4549 65.0543 31.1173 64.8942 30.5096C64.8484 30.1719 64.8027 29.8343 64.8027 29.4967C64.7798 28.979 64.7569 28.3487 64.7569 27.6059V26.5705C64.7569 25.7827 64.7569 24.9724 64.7798 24.117C64.8027 22.8565 64.8255 21.8436 64.8942 21.0783C64.9399 20.5831 64.9857 20.0429 65.0314 19.4577C65.0772 18.8724 65.1458 18.2422 65.1915 17.6569C65.3059 16.5315 65.4203 15.4961 65.5575 14.5732C65.6033 13.988 65.6948 13.4253 65.8091 12.8625C65.832 12.7725 65.9006 12.705 65.9921 12.705H66.0379C66.1065 12.705 66.1751 12.75 66.1751 12.8175C66.198 13.2677 66.198 13.7179 66.1751 14.1906C66.1751 15.0459 66.1751 16.0588 66.1522 17.2518C66.1065 20.8532 66.0608 23.6443 66.0608 25.6251C66.0608 27.6059 66.1065 28.5963 66.1751 28.5738C66.2666 28.4162 66.3581 28.2587 66.4267 28.1011C66.564 27.786 66.7241 27.4258 66.9071 26.9982C67.8678 24.6347 68.7828 22.879 69.6291 21.7311C70.4755 20.5831 71.2989 19.9979 72.0767 20.0204C72.7171 20.0204 73.1975 20.3805 73.472 21.0783C73.7236 21.8661 73.838 22.6764 73.7922 23.5093C73.7922 23.7569 73.7922 24.0495 73.7694 24.3646C73.7465 24.6347 73.7236 25.0849 73.6779 25.7377C73.6321 26.3679 73.5635 27.0657 73.472 27.8535C73.3805 28.979 73.289 30.1044 73.1975 31.1848C73.0831 32.2653 73.0145 32.8955 72.9916 33.1206C72.9687 33.3457 72.9001 33.4582 72.8315 33.5033H72.8086C72.8086 33.4132 72.7858 33.3457 72.7629 33.1656Z" fill="#363A37"/>
<path d="M77.8181 23.1716C77.9324 23.2842 77.9553 23.4417 77.9324 23.5768C77.8409 23.8019 77.7037 24.0045 77.5207 24.1845C77.109 24.6572 76.7887 25.22 76.6057 25.8277C76.4227 26.4579 76.3541 27.1107 76.4227 27.7635C76.4685 28.2812 76.6286 28.7989 76.9031 29.2491C77.1547 29.6542 77.4063 29.8568 77.6808 29.8568C77.8181 29.8568 77.8638 29.8118 77.8409 29.7443C77.8181 29.6767 77.7266 29.3841 77.5436 28.8664C77.292 28.2362 77.1776 27.5609 77.2005 26.9081C77.2233 26.2779 77.3377 25.6251 77.5436 25.0174C77.7266 24.5222 78.0697 24.072 78.5043 23.7569C78.8703 23.4643 79.3735 23.3292 79.831 23.4192C80.1512 23.5093 80.4257 23.6893 80.6773 23.9144C80.9747 24.162 81.2035 24.4546 81.3636 24.7923C81.6152 25.355 81.7524 25.9628 81.7524 26.593C81.7524 26.9306 81.7067 27.2683 81.6381 27.6059C81.4779 28.5738 81.0205 29.4741 80.3114 30.1719C79.9454 30.5096 79.5336 30.7797 79.099 31.0273C78.7788 31.2073 78.3899 31.2974 78.0239 31.2974C77.7494 31.2974 77.4978 31.2524 77.2462 31.1848C76.5829 30.9597 76.0339 30.4871 75.7136 29.8793C75.3477 29.1365 75.1647 28.3262 75.1875 27.4934C75.1875 26.7731 75.3019 26.0303 75.5764 25.355C75.828 24.7248 76.2398 24.1395 76.743 23.6668C76.9717 23.4643 77.1547 23.3067 77.2691 23.1941C77.3835 23.1266 77.4978 23.0816 77.6351 23.0591C77.6808 23.0591 77.7037 23.0591 77.7494 23.0816C77.7494 23.1041 77.7723 23.1266 77.8181 23.1716ZM78.4814 28.4162C78.5043 28.6413 78.5272 28.8664 78.5729 29.0915C78.5958 29.204 78.6187 29.3391 78.6644 29.4516C78.6873 29.4967 78.7559 29.5417 78.8017 29.5417C78.8474 29.5417 78.8703 29.5417 78.916 29.5192C79.0762 29.4291 79.2134 29.3166 79.3278 29.159C79.831 28.5513 80.1512 27.8085 80.2199 27.0207C80.2656 26.8406 80.2656 26.638 80.2656 26.4354C80.2885 25.9402 80.1512 25.4676 79.8539 25.0624C79.7853 24.9949 79.7166 24.9273 79.6251 24.8823C79.5565 24.8598 79.4879 24.8373 79.4421 24.8373H79.4193C79.099 24.8598 78.8474 25.22 78.6187 25.9627C78.4814 26.4579 78.4128 26.9531 78.4357 27.4708C78.3899 27.7635 78.4128 28.1011 78.4814 28.4162Z" fill="#363A37"/>
<path d="M95.7742 32.738C95.7513 32.5804 95.7285 32.4228 95.7285 32.2653C95.7285 32.0177 95.7285 31.7251 95.7056 31.3874C95.7056 30.7797 95.7284 30.0144 95.7513 29.1365C95.7971 28.2587 95.8428 27.4709 95.8886 26.7506C96.0029 25.265 96.0258 23.7794 95.9801 22.2938C95.9343 21.0333 95.7971 20.403 95.5912 20.403C95.5226 20.403 95.3625 20.5831 95.1108 20.9883C94.8364 21.3934 94.5847 21.7986 94.3789 22.2488C94.2416 22.4964 94.0358 22.9691 93.7613 23.6668C93.4868 24.3646 93.2123 25.0624 92.9149 25.7377C92.6176 26.5255 92.3659 27.1782 92.1372 27.741C91.9085 28.2812 91.7026 28.7539 91.4967 29.159C91.1536 29.8793 90.8791 30.3295 90.6275 30.5546C90.3759 30.7797 90.0557 30.8922 89.7125 30.8922C89.3237 30.8922 89.0034 30.6446 88.7747 30.1494C88.5002 29.4516 88.3401 28.7089 88.2943 27.9661C88.2486 27.741 88.2257 27.5384 88.2028 27.3583C88.18 27.1782 88.1342 27.0657 88.1113 26.9982C88.0656 26.9081 87.9283 26.9982 87.7454 27.2683C87.5624 27.5384 87.2421 28.2137 86.716 29.2716C86.0527 30.6446 85.5266 31.5675 85.1606 32.0402C84.7946 32.5129 84.4286 32.738 84.1084 32.738C83.9025 32.738 83.6966 32.6704 83.5594 32.5579C83.3764 32.3778 83.262 32.1752 83.1705 31.9501C83.0561 31.6125 82.9875 30.8247 82.9418 29.5642C82.9189 29.2041 82.9189 28.8214 82.9189 28.4162C82.9189 27.4934 82.9418 26.548 83.0104 25.5126C83.0561 24.2521 83.1705 22.9691 83.3535 21.7086C83.4679 21.0108 83.628 20.6732 83.8339 20.6732C83.9254 20.6732 83.994 20.7182 84.0397 20.8082C84.0855 21.0333 84.1312 21.2359 84.1312 21.461C84.1541 21.6635 84.177 22.2263 84.177 23.1491C84.177 24.072 84.2227 25.1074 84.2227 26.1878C84.2227 27.2683 84.2227 28.2362 84.2456 29.0915C84.2685 29.9468 84.2914 30.397 84.2914 30.4871C84.3371 30.6896 84.4057 30.7122 84.5201 30.5771C84.6345 30.442 84.909 29.8568 85.3893 28.9114C85.8239 27.9661 86.2814 27.0657 86.8075 26.1878C87.0363 25.7602 87.3565 25.4 87.7454 25.1299C87.9512 24.9949 88.18 24.9273 88.4316 24.9273C88.6832 24.9724 88.8891 25.0849 89.0492 25.2875C89.2551 25.5126 89.3923 25.7602 89.4609 26.0528C89.5982 26.548 89.6897 27.0657 89.7354 27.5834C89.7812 27.876 89.804 28.1461 89.8498 28.3712C89.8727 28.5063 89.8955 28.6413 89.9413 28.7764C89.987 28.8889 90.1243 28.7314 90.3301 28.3037C90.536 27.876 90.902 26.9982 91.4739 25.6251C92.4803 23.1942 93.2809 21.506 93.8985 20.5606C94.5161 19.6152 95.1108 19.165 95.6827 19.1425C96.3461 19.1425 96.8035 19.7053 97.078 20.8082C97.2382 21.6185 97.3296 22.4514 97.3068 23.2842C97.3068 24.0045 97.261 24.7923 97.1924 25.6927C97.1467 26.2104 97.1009 26.7506 97.0323 27.3358C96.9637 27.921 96.8722 28.4838 96.8035 29.069C96.6434 30.1044 96.4604 31.0048 96.3003 31.7701C96.1402 32.5354 96.0029 32.918 95.9114 32.9405C95.8886 32.9405 95.8657 32.918 95.8199 32.8505C95.8199 32.828 95.7971 32.783 95.7742 32.738Z" fill="#363A37"/>
<path d="M103.163 18.3997C103.46 18.6248 103.689 18.9174 103.803 19.2551C103.963 19.6377 104.032 20.0654 103.986 20.4931V20.5156C104.009 21.4835 103.689 22.4288 103.048 23.1716C102.454 23.8694 101.584 24.2521 100.669 24.2296C100.463 24.2296 100.235 24.2296 100.029 24.2521C99.9374 24.2971 99.8687 24.3871 99.8687 24.4997C99.8459 24.7698 99.823 25.0174 99.823 25.2875C99.8001 25.7152 99.8001 26.2104 99.8001 26.7731C99.7772 27.6734 99.8459 28.5738 100.006 29.4516C100.12 30.1044 100.349 30.7572 100.669 31.3424C100.875 31.7701 101.15 32.1527 101.539 32.4453C101.95 32.7154 102.431 32.8955 102.911 32.963C103.048 32.9856 103.117 33.0081 103.14 33.0531C103.163 33.0981 103.117 33.1206 103.025 33.1881C102.911 33.3232 102.614 33.3907 102.133 33.4132H101.882C101.607 33.4132 101.356 33.3907 101.104 33.3007C100.486 33.0306 99.9602 32.5129 99.5256 31.7476C99.0453 30.8697 98.725 29.9468 98.5649 28.9565C98.4277 28.1461 98.3819 27.3133 98.4048 26.503C98.4048 25.6701 98.4734 24.8148 98.5649 23.982C98.8851 22.2263 99.3884 20.8082 100.075 19.7503C100.761 18.6698 101.47 18.1296 102.248 18.1071C102.271 18.0846 102.271 18.0846 102.293 18.0846C102.454 18.1071 102.591 18.1296 102.728 18.1746C102.865 18.1972 103.025 18.2872 103.163 18.3997ZM100.944 20.9658C100.715 21.4159 100.532 21.8886 100.395 22.3838C100.303 22.6539 100.235 22.924 100.189 23.1942V23.2842C100.258 23.3292 100.326 23.3517 100.418 23.3292H100.646C100.898 23.2842 101.127 23.2167 101.333 23.1041C101.607 22.9466 101.836 22.7215 102.019 22.4739C102.454 21.9562 102.705 21.3034 102.682 20.6506V20.5606C102.705 20.313 102.659 20.0429 102.545 19.8178C102.522 19.7278 102.454 19.6602 102.385 19.5927C102.316 19.5477 102.271 19.5252 102.202 19.5477C101.973 19.5927 101.767 19.7053 101.653 19.9078C101.356 20.223 101.127 20.5831 100.944 20.9658Z" fill="#363A37"/>
<path d="M95.1566 35.7992C95.4311 36.2268 95.3167 36.4969 94.8135 36.6095L84.5658 38.8379C84.4744 38.8604 84.3829 38.8829 84.2914 38.9504L95.0422 39.7382C95.4082 39.7608 95.6141 39.9408 95.5912 40.1884C95.5683 40.436 95.3625 40.6161 95.0194 40.5936L91.7483 40.3685L81.2491 39.6032C81.1347 39.6032 80.9975 39.6032 80.8831 39.6482L76.4684 40.5936L76.2854 40.6386C76.0567 40.7286 75.805 40.5936 75.7135 40.3685C75.622 40.1434 75.7593 39.8958 75.988 39.8058C76.0109 39.7833 76.0566 39.7833 76.0795 39.7833C76.5828 39.6707 77.086 39.5582 77.5892 39.4456C77.6807 39.4231 77.7493 39.4006 77.818 39.3556L76.2168 39.243L76.0338 39.2205C75.7364 39.198 75.5534 39.018 75.5763 38.7478C75.5992 38.5002 75.8279 38.3202 76.0795 38.3427H76.1024C76.5828 38.3652 77.0402 38.4102 77.5206 38.4552C78.6186 38.5453 79.6936 38.6128 80.7916 38.7028C80.906 38.7028 81.0203 38.7028 81.1347 38.6803L94.7449 35.7091C94.7677 35.7091 94.7677 35.6866 94.7906 35.6866L95.1566 35.7992Z" fill="#363A37"/>
</svg>
